# xmcd
#
# Track frame offsets: 
#        150
#        12767
#        24362
#        34882
#        45545
#        56800
#        68135
#        79612
#        94570
#        114057
#        125462
#        137025
#
# Disc length: 1976 seconds
#
# Revision: 6
# Processed by: cddbd v1.5.2PL0 Copyright (c) Steve Scherf et al.
# Submitted via: ExactAudioCopyFreeDBPlugin 1.0
#
DISCID=8e07b60c
DTITLE=Washington, Dinah - What A Diff'rence A Day Makes!
DYEAR=1959
DGENRE=Jazz
TTITLE0=I Remember You
TTITLE1=I Thought About You
TTITLE2=That's All There Is To That
TTITLE3=I Won't Cry Anymore
TTITLE4=I'm Thru With Love
TTITLE5=Cry Me A River
TTITLE6=What A Diff'rence A Day Makes
TTITLE7=Nothing In The World
TTITLE8=Manhattan
TTITLE9=Time After Time
TTITLE10=It's Magic
TTITLE11=A Sunday Kind Of Love
EXTD=
EXTT0=
EXTT1=
EXTT2=
EXTT3=
EXTT4=
EXTT5=
EXTT6=
EXTT7=
EXTT8=
EXTT9=
EXTT10=
EXTT11=
PLAYORDER=
